<svg xmlns="http://www.w3.org/2000/svg" width="29.77" height="37.315" viewBox="0 0 29.77 37.315"><g transform="translate(-1443.993 -220.205)"><path d="M1473.355,228.6l-4.485-4.01c-1.473-1.318-2.9-2.832-4.484-4.011a2.722,2.722,0,0,0-1.856-.372h-17.265a1.29,1.29,0,0,0-1.272,1.272v34.768a1.29,1.29,0,0,0,1.272,1.272h27.192a1.29,1.29,0,0,0,1.272-1.272V229.712A1.081,1.081,0,0,0,1473.355,228.6Zm-26.819-5.85H1463l8.18,7.316v24.909h-24.649V222.752Z" transform="translate(0 0)" fill="#fff"/><path d="M1473.1,276.687h13.281a1.272,1.272,0,0,0,0-2.543H1473.1A1.272,1.272,0,0,0,1473.1,276.687Z" transform="translate(-20.792 -40.222)" fill="#fff"/><path d="M1473.636,298h13.281a1.272,1.272,0,0,0,0-2.543h-13.281A1.272,1.272,0,0,0,1473.636,298Z" transform="translate(-21.189 -56.118)" fill="#fff"/><path d="M1487.451,316.778h-13.281a1.272,1.272,0,0,0,0,2.543h13.281A1.272,1.272,0,0,0,1487.451,316.778Z" transform="translate(-21.586 -72.014)" fill="#fff"/><path d="M1515.611,243.1h4.609a1.272,1.272,0,0,0,0-2.543h-3.337v-2.593a1.272,1.272,0,0,0-2.543,0v3.865A1.29,1.29,0,0,0,1515.611,243.1Z" transform="translate(-52.456 -12.326)" fill="#fff"/></g></svg>